<svg xmlns="http://www.w3.org/2000/svg" viewBox="0 0 64 64">
  <polygon points="0,0 56,0 64,8 64,64 8,64 0,56" fill="#0d0d11"/>
  <path d="M1 1h55l7 7v55l-7 7H8l-7-7V8z" fill="none" stroke="#8b8b95" stroke-opacity=".3"/>
  <path d="M5 13V5h8M51 59h8v-8" fill="none" stroke="#ff2e2e" stroke-width="1.8"/>
  <rect x="12" y="28" width="14" height="10" fill="none" stroke="#ff2e2e" stroke-width="2.4"/>
  <path d="M26 30l16-10 6 3-14 9" fill="none" stroke="#ff2e2e" stroke-width="2.4" stroke-linejoin="miter" stroke-linecap="square"/>
  <path d="M26 36l16 10 6-3-14-9" fill="none" stroke="#ff2e2e" stroke-width="2.4" stroke-linejoin="miter" stroke-linecap="square"/>
  <path d="M42 20l5-3M42 46l5 3" fill="none" stroke="#ece9e2" stroke-width="1.5" stroke-linejoin="miter" stroke-linecap="square"/>
  <rect x="28" y="31" width="4" height="4" fill="none" stroke="#ece9e2" stroke-width="1.5"/>
  <path d="M36 27l4-3M36 39l4 3" fill="none" stroke="#8b8b95" stroke-width="1.3" stroke-opacity=".8" stroke-linejoin="miter" stroke-linecap="square"/>
</svg>
